<svg xmlns="http://www.w3.org/2000/svg" width="1000" height="420" viewBox="0 0 1000 420">
<rect x=".5" y=".5" width="999" height="419" rx="14" fill="#ffffff" stroke="#e5e5e5"/>
<text x="52" y="78" font-family="'JetBrains Mono',ui-monospace,SFMono-Regular,Menlo,Consolas,'DejaVu Sans Mono',monospace" font-size="12" letter-spacing="2.5" fill="#5c5c5c">ARPIT KOHALE</text>
<text x="50" y="140" font-family="Inter,-apple-system,BlinkMacSystemFont,'Segoe UI',Helvetica,Arial,sans-serif" font-size="34" font-weight="700" letter-spacing="-1.2" fill="#111111">Context is the product.</text>
<text x="50" y="184" font-family="Inter,-apple-system,BlinkMacSystemFont,'Segoe UI',Helvetica,Arial,sans-serif" font-size="34" font-weight="700" letter-spacing="-1.2" fill="#9a9a9a">The model is a parameter.</text>
<text x="52" y="240" font-family="Inter,-apple-system,BlinkMacSystemFont,'Segoe UI',Helvetica,Arial,sans-serif" font-size="17" fill="#5c5c5c">I design agent runtimes, developer tools and the</text>
<text x="52" y="266" font-family="Inter,-apple-system,BlinkMacSystemFont,'Segoe UI',Helvetica,Arial,sans-serif" font-size="17" fill="#5c5c5c">systems under them, in Go, Python and TypeScript.</text>
<text x="52" y="292" font-family="Inter,-apple-system,BlinkMacSystemFont,'Segoe UI',Helvetica,Arial,sans-serif" font-size="17" fill="#5c5c5c">Based in Bengaluru.</text>
<line x1="52" y1="352" x2="470" y2="352" stroke="#e5e5e5"/>
<text x="52" y="378" font-family="'JetBrains Mono',ui-monospace,SFMono-Regular,Menlo,Consolas,'DejaVu Sans Mono',monospace" font-size="12" fill="#5c5c5c">now <tspan fill="#111111">forge</tspan> · learning <tspan fill="#111111">inference &amp; serving</tspan></text>
<text x="596" y="62" font-family="'JetBrains Mono',ui-monospace,SFMono-Regular,Menlo,Consolas,'DejaVu Sans Mono',monospace" font-size="11" letter-spacing="1.5" fill="#9a9a9a">FORGE · CONTEXT ASSEMBLY</text>
<rect x="596" y="86" width="100" height="30" rx="6" fill="#ffffff" stroke="#e5e5e5"/><text x="608" y="105.5" font-family="'JetBrains Mono',ui-monospace,SFMono-Regular,Menlo,Consolas,'DejaVu Sans Mono',monospace" font-size="12" fill="#111111">env</text>
<rect x="596" y="134" width="100" height="30" rx="6" fill="#ffffff" stroke="#e5e5e5"/><text x="608" y="153.5" font-family="'JetBrains Mono',ui-monospace,SFMono-Regular,Menlo,Consolas,'DejaVu Sans Mono',monospace" font-size="12" fill="#111111">git state</text>
<rect x="596" y="182" width="100" height="30" rx="6" fill="#ffffff" stroke="#e5e5e5"/><text x="608" y="201.5" font-family="'JetBrains Mono',ui-monospace,SFMono-Regular,Menlo,Consolas,'DejaVu Sans Mono',monospace" font-size="12" fill="#111111">FORGE.md</text>
<rect x="596" y="230" width="100" height="30" rx="6" fill="#ffffff" stroke="#e5e5e5"/><text x="608" y="249.5" font-family="'JetBrains Mono',ui-monospace,SFMono-Regular,Menlo,Consolas,'DejaVu Sans Mono',monospace" font-size="12" fill="#111111">memory</text>
<rect x="596" y="278" width="100" height="30" rx="6" fill="#ffffff" stroke="#e5e5e5"/><text x="608" y="297.5" font-family="'JetBrains Mono',ui-monospace,SFMono-Regular,Menlo,Consolas,'DejaVu Sans Mono',monospace" font-size="12" fill="#111111">history</text>
<rect x="724" y="170" width="112" height="64" rx="8" fill="#ffffff" stroke="#c2410c"/><text x="780.0" y="198" text-anchor="middle" font-family="'JetBrains Mono',ui-monospace,SFMono-Regular,Menlo,Consolas,'DejaVu Sans Mono',monospace" font-size="12" font-weight="700" fill="#111111">assemble</text><text x="780.0" y="216" text-anchor="middle" font-family="'JetBrains Mono',ui-monospace,SFMono-Regular,Menlo,Consolas,'DejaVu Sans Mono',monospace" font-size="10.5" fill="#5c5c5c">system prompt</text>
<rect x="862" y="170" width="106" height="64" rx="8" fill="#ffffff" stroke="#e5e5e5"/><text x="915.0" y="198" text-anchor="middle" font-family="'JetBrains Mono',ui-monospace,SFMono-Regular,Menlo,Consolas,'DejaVu Sans Mono',monospace" font-size="12" font-weight="700" fill="#111111">any model</text><text x="915.0" y="216" text-anchor="middle" font-family="'JetBrains Mono',ui-monospace,SFMono-Regular,Menlo,Consolas,'DejaVu Sans Mono',monospace" font-size="10.5" fill="#5c5c5c">OpenAI-compat</text>
<text x="716" y="290" font-family="'JetBrains Mono',ui-monospace,SFMono-Regular,Menlo,Consolas,'DejaVu Sans Mono',monospace" font-size="10.5" fill="#9a9a9a">tools · reads auto-allowed · writes ask</text>
<rect x="716" y="300" width="78" height="28" rx="6" fill="#ffffff" stroke="#e5e5e5" stroke-dasharray="0"/><text x="755" y="318.5" text-anchor="middle" font-family="'JetBrains Mono',ui-monospace,SFMono-Regular,Menlo,Consolas,'DejaVu Sans Mono',monospace" font-size="12" fill="#111111">Read</text>
<rect x="802" y="300" width="78" height="28" rx="6" fill="#ffffff" stroke="#e5e5e5" stroke-dasharray="0"/><text x="841" y="318.5" text-anchor="middle" font-family="'JetBrains Mono',ui-monospace,SFMono-Regular,Menlo,Consolas,'DejaVu Sans Mono',monospace" font-size="12" fill="#111111">Glob</text>
<rect x="888" y="300" width="78" height="28" rx="6" fill="#ffffff" stroke="#e5e5e5" stroke-dasharray="0"/><text x="927" y="318.5" text-anchor="middle" font-family="'JetBrains Mono',ui-monospace,SFMono-Regular,Menlo,Consolas,'DejaVu Sans Mono',monospace" font-size="12" fill="#111111">Grep</text>
<rect x="716" y="338" width="78" height="28" rx="6" fill="#ffffff" stroke="#c2410c" stroke-dasharray="3 3"/><text x="755" y="356.5" text-anchor="middle" font-family="'JetBrains Mono',ui-monospace,SFMono-Regular,Menlo,Consolas,'DejaVu Sans Mono',monospace" font-size="12" fill="#111111">Write</text>
<rect x="802" y="338" width="78" height="28" rx="6" fill="#ffffff" stroke="#c2410c" stroke-dasharray="3 3"/><text x="841" y="356.5" text-anchor="middle" font-family="'JetBrains Mono',ui-monospace,SFMono-Regular,Menlo,Consolas,'DejaVu Sans Mono',monospace" font-size="12" fill="#111111">Edit</text>
<rect x="888" y="338" width="78" height="28" rx="6" fill="#ffffff" stroke="#c2410c" stroke-dasharray="3 3"/><text x="927" y="356.5" text-anchor="middle" font-family="'JetBrains Mono',ui-monospace,SFMono-Regular,Menlo,Consolas,'DejaVu Sans Mono',monospace" font-size="12" fill="#111111">Bash</text>
<path d="M696,101.0 C716,101.0 704,202.0 724,202.0" fill="none" stroke="#e5e5e5" stroke-width="1.2"/>
<path d="M696,101.0 C716,101.0 704,202.0 724,202.0" fill="none" stroke="#c2410c" stroke-width="1.4" stroke-dasharray="6 114" stroke-linecap="round"><animate attributeName="stroke-dashoffset" from="120" to="0" dur="2.4s" repeatCount="indefinite"/></path>
<path d="M696,149.0 C716,149.0 704,202.0 724,202.0" fill="none" stroke="#e5e5e5" stroke-width="1.2"/>
<path d="M696,149.0 C716,149.0 704,202.0 724,202.0" fill="none" stroke="#c2410c" stroke-width="1.4" stroke-dasharray="6 114" stroke-linecap="round"><animate attributeName="stroke-dashoffset" from="120" to="0" dur="2.6s" repeatCount="indefinite"/></path>
<path d="M696,197.0 C716,197.0 704,202.0 724,202.0" fill="none" stroke="#e5e5e5" stroke-width="1.2"/>
<path d="M696,197.0 C716,197.0 704,202.0 724,202.0" fill="none" stroke="#c2410c" stroke-width="1.4" stroke-dasharray="6 114" stroke-linecap="round"><animate attributeName="stroke-dashoffset" from="120" to="0" dur="2.8s" repeatCount="indefinite"/></path>
<path d="M696,245.0 C716,245.0 704,202.0 724,202.0" fill="none" stroke="#e5e5e5" stroke-width="1.2"/>
<path d="M696,245.0 C716,245.0 704,202.0 724,202.0" fill="none" stroke="#c2410c" stroke-width="1.4" stroke-dasharray="6 114" stroke-linecap="round"><animate attributeName="stroke-dashoffset" from="120" to="0" dur="3.0s" repeatCount="indefinite"/></path>
<path d="M696,293.0 C716,293.0 704,202.0 724,202.0" fill="none" stroke="#e5e5e5" stroke-width="1.2"/>
<path d="M696,293.0 C716,293.0 704,202.0 724,202.0" fill="none" stroke="#c2410c" stroke-width="1.4" stroke-dasharray="6 114" stroke-linecap="round"><animate attributeName="stroke-dashoffset" from="120" to="0" dur="3.2s" repeatCount="indefinite"/></path>
<path d="M836,202.0 L862,202.0" fill="none" stroke="#e5e5e5" stroke-width="1.2"/>
<path d="M836,202.0 L862,202.0" fill="none" stroke="#c2410c" stroke-width="1.4" stroke-dasharray="6 114" stroke-linecap="round"><animate attributeName="stroke-dashoffset" from="120" to="0" dur="3.4s" repeatCount="indefinite"/></path>
<path d="M915.0,234 C915.0,264 841,260 841,276" fill="none" stroke="#e5e5e5" stroke-width="1.2"/>
<path d="M915.0,234 C915.0,264 841,260 841,276" fill="none" stroke="#c2410c" stroke-width="1.4" stroke-dasharray="6 114" stroke-linecap="round"><animate attributeName="stroke-dashoffset" from="120" to="0" dur="3.6s" repeatCount="indefinite"/></path>
</svg>